<svg xmlns="http://www.w3.org/2000/svg" width="545px" height="264px" xmlns:xlink="http://www.w3.org/1999/xlink" version="1.1"><defs/><g transform="translate(0.5,0.5)"><path d="M 212 2 L 412 132 L 212 262 Z" fill="#ffffff" stroke="#000000" stroke-miterlimit="10"/><path d="M 12 67 L 12 57 L 172 57 L 172 47 L 202 62 L 172 77 L 172 67 Z" fill="#ffffff" stroke="#000000" stroke-miterlimit="10"/><g fill="#000000" font-family="Helvetica" text-anchor="middle" font-size="11px"><rect fill="#ffffff" stroke="none" x="78" y="36" width="42" height="14" stroke-width="0"/><text x="99" y="46">Request</text></g><path d="M 93 185 L 91 175 L 172 156 L 170 147 L 202 154 L 176 176 L 174 166 Z" fill="#ffffff" stroke="#000000" stroke-miterlimit="10"/><g fill="#000000" font-family="Helvetica" text-anchor="middle" font-size="11px"><rect fill="#ffffff" stroke="none" x="118" y="143" width="40" height="14" stroke-width="0"/><text x="137" y="152">Storage</text></g><path d="M 93 245 L 91 235 L 172 216 L 170 206 L 202 214 L 176 236 L 174 226 Z" fill="#ffffff" stroke="#000000" stroke-miterlimit="10"/><g fill="#000000" font-family="Helvetica" text-anchor="middle" font-size="11px"><rect fill="#ffffff" stroke="none" x="112" y="203" width="52" height="14" stroke-width="0"/><text x="138" y="212">Integration</text></g><path d="M 422 137 L 422 127 L 502 127 L 502 117 L 532 132 L 502 147 L 502 137 Z" fill="#ffffff" stroke="#000000" stroke-miterlimit="10"/><g fill="#000000" font-family="Helvetica" text-anchor="middle" font-size="11px"><rect fill="#ffffff" stroke="none" x="458" y="106" width="29" height="14" stroke-width="0"/><text x="472" y="115">HTML</text></g><path d="M 419 160 L 423 151 L 477 173 L 480 163 L 503 188 L 469 191 L 473 182 Z" fill="#ffffff" stroke="#000000" stroke-miterlimit="10"/><g fill="#000000" font-family="Helvetica" text-anchor="middle" font-size="11px"><rect fill="#ffffff" stroke="none" x="428" y="185" width="40" height="14" stroke-width="0"/><text x="447" y="195">Storage</text></g></g></svg>